<svg width="474" height="318" viewBox="0 0 474 318" fill="none" xmlns="http://www.w3.org/2000/svg">
<rect width="51" height="12" rx="6" fill="#FF4B4B"/>
<rect y="306" width="51" height="12" rx="6" fill="#FF4B4B"/>
<rect y="234" width="51" height="12" rx="6" fill="#FF4B4B"/>
<rect x="57" width="51" height="12" rx="6" fill="#FF4B4B"/>
<rect x="57" y="306" width="51" height="12" rx="6" fill="#FF4B4B"/>
<rect x="26" y="18" width="51" height="12" rx="6" fill="#FF4B4B"/>
<rect x="26" y="108" width="51" height="12" rx="6" fill="#FF4B4B"/>
<rect x="26" y="216" width="51" height="12" rx="6" fill="#FF4B4B"/>
<rect x="26" y="90" width="51" height="12" rx="6" fill="#FF4B4B"/>
<rect x="57" y="36" width="51" height="12" rx="6" fill="#FF4B4B"/>
<rect x="57" y="126" width="51" height="12" rx="6" fill="#FF4B4B"/>
<rect x="57" y="198" width="51" height="12" rx="6" fill="#FF4B4B"/>
<rect x="57" y="72" width="51" height="12" rx="6" fill="#FF4B4B"/>
<rect x="93" y="54" width="51" height="12" rx="6" fill="#FF4B4B"/>
<rect x="93" y="144" width="51" height="12" rx="6" fill="#FF4B4B"/>
<rect x="93" y="162" width="51" height="12" rx="6" fill="#FF4B4B"/>
<rect x="93" y="180" width="51" height="12" rx="6" fill="#FF4B4B"/>
<rect x="114" y="36" width="51" height="12" rx="6" fill="#74AA00"/>
<rect x="114" y="126" width="51" height="12" rx="6" fill="#74AA00"/>
<rect x="150" y="54" width="51" height="12" rx="6" fill="#74AA00"/>
<rect x="150" y="144" width="51" height="12" rx="6" fill="#74AA00"/>
<rect x="150" y="180" width="51" height="12" rx="6" fill="#74AA00"/>
<rect x="171" y="36" width="267" height="12" rx="6" fill="#FFA800"/>
<rect x="171" y="126" width="267" height="12" rx="6" fill="#FFA800"/>
<rect x="207" y="54" width="267" height="12" rx="6" fill="#FFA800"/>
<rect x="207" y="144" width="267" height="12" rx="6" fill="#FFA800"/>
<rect x="207" y="162" width="267" height="12" rx="6" fill="#FFA800"/>
<rect x="207" y="180" width="267" height="12" rx="6" fill="#FFA800"/>
<rect x="114" width="51" height="12" rx="6" fill="#FF4B4B"/>
<rect x="114" y="306" width="51" height="12" rx="6" fill="#FF4B4B"/>
<rect x="171" width="51" height="12" rx="6" fill="#74AA00"/>
<rect x="171" y="306" width="51" height="12" rx="6" fill="#74AA00"/>
</svg>
